<svg width="24" height="24" viewBox="0 0 24 24" fill="none" xmlns="http://www.w3.org/2000/svg">
<path d="M10 15.5H14C14.142 15.5 14.2607 15.452 14.356 15.356C14.4513 15.26 14.4993 15.1413 14.5 15V13.5H13.5V14.5H10.5V9.5H13.5V10.5H14.5V9C14.5 8.858 14.452 8.739 14.356 8.643C14.2607 8.54767 14.142 8.5 14 8.5H10C9.858 8.5 9.73933 8.548 9.644 8.644C9.54867 8.74 9.50067 8.85867 9.5 9V15C9.5 15.142 9.548 15.2607 9.644 15.356C9.74 15.4513 9.85867 15.4993 10 15.5ZM12.003 21C10.759 21 9.589 20.764 8.493 20.292C7.39767 19.8193 6.44467 19.178 5.634 18.368C4.82333 17.5587 4.18167 16.6067 3.709 15.512C3.23633 14.4173 3 13.2477 3 12.003C3 10.759 3.236 9.589 3.708 8.493C4.18067 7.39767 4.822 6.44467 5.632 5.634C6.44133 4.82333 7.39333 4.18167 8.488 3.709C9.58267 3.23633 10.7523 3 11.997 3C13.241 3 14.411 3.236 15.507 3.708C16.6023 4.18067 17.5553 4.822 18.366 5.632C19.1767 6.44133 19.8183 7.39333 20.291 8.488C20.7637 9.58267 21 10.7523 21 11.997C21 13.241 20.764 14.411 20.292 15.507C19.8193 16.6023 19.178 17.5553 18.368 18.366C17.5587 19.1767 16.6067 19.8183 15.512 20.291C14.4173 20.7637 13.2477 21 12.003 21ZM12 20C14.2333 20 16.125 19.225 17.675 17.675C19.225 16.125 20 14.2333 20 12C20 9.76667 19.225 7.875 17.675 6.325C16.125 4.775 14.2333 4 12 4C9.76667 4 7.875 4.775 6.325 6.325C4.775 7.875 4 9.76667 4 12C4 14.2333 4.775 16.125 6.325 17.675C7.875 19.225 9.76667 20 12 20Z" fill="black"/>
</svg>
